<?xml version="1.0"?>
<svg xmlns="http://www.w3.org/2000/svg" xmlns:xlink="http://www.w3.org/1999/xlink" xmlns:svgjs="http://svgjs.com/svgjs" version="1.1" width="512" height="512" x="0" y="0" viewBox="0 0 509.941 509.941" style="enable-background:new 0 0 512 512" xml:space="preserve" class=""><g><g xmlns="http://www.w3.org/2000/svg" id="XMLID_403_"><path id="XMLID_406_" d="m233.727 139.122c-7.259-9.836-12.815-20.951-16.297-32.762l-28.775 8.484c4.437 15.049 11.5 29.226 20.724 41.799 6.464-7.757 14.822-13.84 24.348-17.521z" fill="#ffffff" data-original="#000000" style="" class=""/><path id="XMLID_407_" d="m300.2 156.362c8.408-12.11 15.071-26.17 19.597-41.518l-28.775-8.484c-3.588 12.169-8.779 23.219-15.269 32.626 9.55 3.623 17.938 9.662 24.447 17.376z" fill="#ffffff" data-original="#000000" style="" class=""/><path id="XMLID_408_" d="m199.364 217.205c-2.664-6.945-4.014-14.271-4.014-21.771 0-4.963.608-9.783 1.731-14.401l-38.823-22.886v-85.878l51.864-50.847-21.001-21.422-60.862 59.667v115.621l68.081 40.133h-70.936l-52.049-54.313v-90.787h-30v102.842l69.248 72.258h74.188c2.803-5.145 6.184-9.996 10.113-14.446 3.327-3.772 4.271-9.048 2.46-13.77z" fill="#ffffff" data-original="#000000" style="" class=""/><path id="XMLID_409_" d="m121.922 331.109v115.231l60.494 63.601 21.737-20.676-52.231-54.913v-84.268l44.278-20.998c-6.904-9.119-11.945-17.812-15.103-26.039z" fill="#ffffff" data-original="#000000" style="" class=""/><path id="XMLID_410_" d="m177.978 271.895h-71.713l-69.248 72.258v102.841h30v-90.786l52.049-54.313h61.592c-2.35-6.448-3.531-12.608-3.531-18.458.001-3.888.297-7.743.851-11.542z" fill="#ffffff" data-original="#000000" style="" class=""/><path id="XMLID_411_" d="m310.453 217.206c-1.81 4.721-.867 9.997 2.462 13.769 3.929 4.451 7.309 9.301 10.113 14.446h74.312l69.248-72.258v-102.842h-30v90.787l-52.049 54.313h-70.936l68.081-40.133v-115.621l-60.863-59.667-21.002 21.422 51.864 50.847v85.879l-38.932 22.95c1.113 4.598 1.717 9.396 1.717 14.337 0 7.5-1.351 14.825-4.015 21.771z" fill="#ffffff" data-original="#000000" style="" class=""/><path id="XMLID_412_" d="m358.019 350.086v84.267l-52.231 54.913 21.737 20.676 60.494-63.601v-115.232l-59.279-28.112c-3.152 8.23-8.189 16.925-15.09 26.047z" fill="#ffffff" data-original="#000000" style="" class=""/><path id="XMLID_413_" d="m403.676 271.895h-71.837c.554 3.8.85 7.654.85 11.542 0 5.85-1.181 12.01-3.531 18.458h61.716l52.049 54.313v90.786h30v-102.842z" fill="#ffffff" data-original="#000000" style="" class=""/><path id="XMLID_414_" d="m290.424 250.828c-10.748-12.176-13.806-29.175-7.982-44.363 1.344-3.506 2.026-7.216 2.026-11.03 0-16.688-13.26-30.266-29.559-30.266s-29.559 13.577-29.559 30.266c0 3.814.682 7.524 2.025 11.029 5.824 15.189 2.765 32.188-7.982 44.364-7.909 8.96-12.265 20.54-12.265 32.608 0 16.777 25.579 44.572 47.772 63.031 22.195-18.488 47.789-46.307 47.789-63.031 0-12.068-4.355-23.648-12.265-32.608z" fill="#ffffff" data-original="#000000" style="" class=""/></g></g></svg>
